<?xml version="1.0" standalone="no"?>
<!DOCTYPE svg PUBLIC "-//W3C//DTD SVG 20010904//EN"
 "http://www.w3.org/TR/2001/REC-SVG-20010904/DTD/svg10.dtd">
<svg version="1.0" xmlns="http://www.w3.org/2000/svg"
 width="300.000000pt" height="273.000000pt" viewBox="0 0 300.000000 273.000000"
 preserveAspectRatio="xMidYMid meet">
<metadata>
Created by potrace 1.10, written by Peter Selinger 2001-2011
</metadata>
<g transform="translate(0.000000,273.000000) scale(0.100000,-0.100000)"
fill="#000000" stroke="none">
<path d="M585 2610 c-44 -21 -95 -90 -95 -126 0 -17 -8 -23 -37 -28 -21 -3
-53 -6 -71 -6 -45 0 -149 -36 -195 -67 -47 -33 -87 -99 -87 -144 0 -45 37
-109 77 -134 18 -11 37 -34 43 -51 13 -39 48 -70 135 -122 97 -58 98 -59 138
-137 49 -98 117 -187 177 -232 l50 -37 2 -63 c0 -35 1 -68 2 -73 1 -6 -15 -18
-34 -28 -31 -15 -35 -21 -33 -52 l2 -35 -52 4 c-44 3 -54 0 -72 -21 -11 -13
-54 -38 -95 -55 -105 -44 -106 -44 -137 -28 -36 19 -67 19 -108 0 -31 -15 -55
-50 -55 -80 0 -8 14 -30 31 -50 26 -30 38 -35 73 -35 47 0 83 21 96 55 8 20
17 23 87 28 43 2 99 12 126 20 26 9 47 14 47 12 0 -2 -30 -21 -67 -41 -38 -21
-87 -50 -110 -66 -23 -15 -49 -28 -58 -28 -24 0 -57 -19 -77 -44 -42 -52 -2
-126 69 -126 42 0 109 40 118 71 4 11 39 36 83 58 42 22 105 65 140 96 l62 57
0 -40 c0 -33 6 -45 35 -71 20 -17 41 -31 47 -31 10 0 8 -18 -7 -67 -11 -36 34
-73 88 -73 89 0 144 109 81 159 -15 12 -33 21 -41 21 -14 0 -53 79 -53 108 0
13 3 12 15 -5 31 -44 77 -67 146 -74 56 -5 71 -10 91 -32 31 -36 77 -44 106
-20 31 25 53 90 40 123 l-9 25 29 -28 30 -29 -28 -62 c-16 -34 -36 -91 -45
-127 -9 -35 -18 -70 -20 -77 -7 -20 -80 27 -93 60 -9 26 -15 28 -60 28 -44 0
-54 -4 -76 -30 -27 -33 -26 -55 6 -80 17 -14 12 -16 -59 -18 -113 -3 -157 5
-188 33 -33 32 -96 34 -125 5 -43 -43 -37 -107 13 -144 24 -18 32 -19 68 -9
31 8 53 8 92 -3 29 -8 80 -14 115 -14 34 0 62 -4 62 -8 0 -4 -35 -13 -77 -18
-64 -9 -82 -8 -101 4 -60 38 -162 -18 -162 -89 0 -72 81 -110 153 -72 52 28
343 44 519 28 83 -7 90 -6 143 19 63 31 153 110 194 170 37 54 52 104 60 195
5 60 9 75 21 72 44 -12 89 -4 123 22 20 15 38 27 41 27 2 0 0 -15 -5 -32 -29
-104 24 -239 110 -276 36 -15 36 -15 10 -22 -14 -4 -35 -13 -47 -19 -17 -9
-28 -8 -51 4 -83 42 -177 -78 -105 -134 34 -27 50 -26 109 4 27 13 51 22 53
20 12 -12 -26 -36 -86 -56 -37 -12 -82 -33 -101 -47 -28 -21 -37 -23 -52 -14
-31 20 -78 14 -104 -13 -30 -29 -31 -46 -4 -70 l20 -19 -22 -17 c-17 -13 -27
-14 -50 -5 -24 8 -37 6 -74 -12 -55 -27 -83 -77 -64 -115 22 -42 50 -57 114
-57 58 0 92 13 120 46 6 6 27 14 48 17 52 8 117 42 188 100 62 49 90 60 44 17
-33 -31 -33 -79 -2 -108 35 -33 119 -31 152 3 14 13 25 33 25 44 0 13 12 27
30 36 17 9 36 27 42 41 8 17 38 37 92 63 149 71 331 255 452 457 71 119 92
174 109 298 28 196 17 240 -74 289 -62 34 -91 34 -168 -3 -67 -31 -71 -30 -48
10 26 45 12 103 -37 156 -19 22 -19 22 6 73 47 91 25 195 -51 245 -51 33 -142
58 -202 55 -48 -3 -52 -1 -113 57 -98 91 -148 129 -214 162 -83 42 -258 87
-431 112 -124 18 -164 29 -330 91 -129 49 -207 73 -249 76 -60 5 -62 6 -81 47
-29 59 -69 104 -114 126 -51 27 -141 27 -194 0z m162 -31 c37 -14 78 -54 109
-107 27 -46 55 -62 120 -68 22 -2 78 -19 125 -40 178 -77 325 -123 444 -139
64 -9 162 -29 217 -45 56 -15 108 -26 117 -22 9 3 13 1 8 -3 -9 -11 51 -37 66
-28 5 3 8 2 4 -3 -3 -5 6 -14 19 -21 14 -6 21 -7 18 -1 -4 6 3 5 15 -2 12 -6
19 -15 16 -21 -4 -5 1 -9 9 -9 9 0 16 -5 16 -12 0 -6 2 -9 5 -6 3 3 33 -23 67
-58 33 -35 65 -62 72 -61 6 1 10 -3 9 -10 -2 -7 3 -10 11 -7 8 3 17 1 21 -5 3
-6 25 -11 48 -11 63 -1 166 -26 196 -47 57 -42 77 -133 46 -211 -15 -38 -15
-96 0 -110 5 -4 5 -1 0 7 -5 10 -4 12 4 7 6 -4 9 -12 5 -17 -3 -6 2 -19 12
-30 21 -23 23 -83 5 -117 -6 -11 -51 -49 -101 -82 -152 -105 -224 -196 -254
-325 -11 -43 9 -19 24 30 20 67 56 119 122 181 132 123 318 209 401 186 25 -7
35 -7 31 0 -4 6 2 5 15 -1 11 -7 20 -15 18 -19 -1 -4 8 -18 21 -32 12 -14 25
-35 29 -47 8 -35 -21 -190 -49 -261 -27 -66 -28 -79 -3 -34 15 26 16 26 9 2
-9 -36 -53 -120 -80 -156 -13 -17 -24 -34 -24 -37 0 -23 -199 -251 -234 -269
-12 -6 6 18 39 53 110 116 102 115 -15 -2 -70 -69 -144 -132 -189 -159 -40
-25 -92 -64 -116 -87 -41 -42 -55 -47 -103 -43 -12 1 -36 -5 -53 -14 -21 -10
-29 -11 -26 -3 2 7 21 20 43 30 46 22 97 69 126 115 11 18 43 50 72 71 46 35
127 131 110 131 -4 0 -22 -18 -41 -39 -43 -51 -146 -123 -253 -178 -47 -24
-112 -63 -145 -88 -83 -61 -126 -83 -187 -96 -35 -7 -60 -20 -73 -35 -36 -44
-145 -40 -145 4 0 48 71 78 121 51 17 -8 24 -6 40 15 13 16 41 32 77 42 67 19
143 56 190 91 18 13 81 54 140 90 59 36 96 63 82 60 -29 -7 -167 -88 -221
-129 -19 -15 -62 -39 -94 -53 -98 -44 -155 -41 -155 7 0 27 28 34 59 15 26
-15 30 -15 51 0 13 9 60 36 104 59 45 23 122 63 171 88 50 26 91 51 93 56 5
13 -62 23 -106 17 -21 -2 -61 -19 -88 -36 -28 -17 -61 -31 -73 -31 -33 0 -37
28 -9 57 21 21 29 23 47 14 17 -10 32 -5 92 24 41 21 103 42 148 50 105 19
128 27 220 75 105 55 206 148 277 258 31 48 68 100 83 117 23 27 24 28 2 10
-13 -11 -42 -47 -64 -80 -133 -197 -375 -353 -557 -358 -81 -2 -111 14 -150
84 -20 37 -25 60 -28 146 -5 114 14 192 67 274 40 64 137 148 209 182 63 30
84 31 162 12 l25 -6 -25 15 c-14 8 -38 15 -54 16 -51 0 -99 35 -170 123 -22
28 -58 58 -84 70 -30 14 -57 37 -75 65 -31 45 -71 72 -110 72 -15 0 -51 22
-90 54 -51 41 -86 61 -149 82 -86 28 -134 56 -253 150 -38 30 -98 68 -131 85
-55 27 -68 30 -116 24 -45 -6 -60 -3 -89 14 -36 22 -49 26 -49 13 0 -4 16 -16
36 -27 26 -14 52 -19 96 -17 50 2 70 -3 122 -29 33 -17 70 -39 82 -50 11 -11
23 -17 26 -13 4 3 11 -4 18 -15 6 -12 17 -21 24 -21 8 0 21 -11 30 -25 9 -14
23 -25 30 -25 8 0 16 -7 20 -15 3 -8 14 -15 25 -15 11 0 24 -6 28 -14 4 -8 42
-22 83 -30 41 -9 80 -23 87 -32 6 -8 14 -15 17 -15 17 2 24 -2 56 -32 41 -40
71 -57 98 -57 10 0 32 -11 48 -25 16 -14 33 -25 38 -25 5 0 6 -3 2 -7 -10 -10
54 -72 90 -87 16 -8 43 -28 60 -46 60 -67 100 -102 124 -112 25 -9 25 -10 5
-24 -16 -12 -21 -12 -24 -2 -2 7 -11 19 -20 26 -40 33 -252 172 -261 172 -5 0
-10 4 -10 9 0 8 -33 24 -50 24 -3 0 -9 6 -15 12 -5 7 -22 15 -37 19 -15 3 -33
12 -40 19 -7 7 -32 19 -56 26 -23 8 -47 20 -53 27 -6 7 -17 10 -25 7 -8 -3
-14 0 -14 6 0 6 -9 11 -20 11 -12 0 -30 9 -42 20 -12 11 -32 20 -45 20 -15 0
-23 6 -23 17 0 9 -3 14 -6 10 -3 -3 -13 1 -22 8 -138 112 -208 150 -327 176
-33 7 -62 16 -65 19 -9 11 -102 62 -106 58 -2 -2 25 -23 61 -46 44 -29 89 -49
146 -63 102 -25 108 -29 187 -95 77 -65 165 -116 290 -166 127 -51 232 -107
400 -217 78 -51 142 -94 142 -96 0 -2 -29 -19 -64 -39 -128 -71 -190 -146
-231 -278 -20 -62 -29 -68 -105 -68 -54 0 -73 10 -60 30 15 24 11 73 -8 101
-9 15 -36 44 -60 65 -24 22 -67 70 -95 109 -68 90 -153 159 -201 163 -60 4
-156 -48 -156 -84 0 -7 -6 -14 -12 -16 -10 -4 -8 -19 6 -64 21 -67 54 -127 66
-119 5 3 29 -13 54 -34 44 -38 45 -41 25 -51 -17 -10 -26 -6 -63 28 -24 22
-52 43 -62 46 -154 52 -148 49 -182 100 -21 32 -47 56 -72 67 -22 10 -61 33
-87 51 -79 53 -268 226 -315 286 -62 79 -111 153 -106 158 7 7 105 -30 208
-79 130 -61 189 -77 279 -76 l76 2 -55 8 c-143 23 -172 33 -300 95 -125 61
-254 121 -340 157 -50 21 -120 75 -120 92 0 25 33 17 101 -24 36 -22 92 -47
125 -57 32 -9 115 -41 184 -72 121 -53 252 -103 373 -143 31 -10 150 -39 263
-64 223 -50 267 -64 454 -150 149 -68 206 -109 251 -181 37 -58 59 -75 59 -45
0 11 -6 22 -12 24 -10 4 -9 8 2 17 13 10 13 11 -1 7 -11 -4 -21 4 -30 21 -14
27 -107 122 -118 120 -12 -2 -71 24 -71 31 0 4 -16 13 -35 20 -19 7 -33 17
-30 22 4 5 1 9 -4 9 -6 0 -11 -5 -11 -11 0 -5 -5 -7 -10 -4 -6 4 -7 11 -4 17
4 6 -1 8 -15 3 -13 -4 -21 -2 -21 5 0 6 -6 10 -12 7 -7 -2 -20 4 -28 13 -8 9
-22 17 -30 18 -45 5 -79 15 -74 24 4 6 -2 8 -15 3 -16 -5 -20 -3 -15 9 3 9 2
16 -4 16 -6 0 -12 -4 -14 -9 -1 -5 -16 -7 -31 -4 -16 3 -24 9 -18 12 6 4 -5 7
-25 7 -19 0 -39 6 -43 13 -6 10 -10 10 -16 1 -5 -8 -11 -6 -21 7 -7 10 -14 13
-14 7 0 -7 -11 -9 -26 -6 -16 3 -21 7 -14 12 6 4 -10 6 -37 5 -26 -1 -52 1
-58 4 -11 6 -27 10 -62 16 -12 2 -28 7 -35 11 -7 5 -20 9 -28 9 -55 5 -55 5
-15 29 22 12 39 28 37 35 -1 7 2 10 7 6 6 -3 18 6 27 20 14 22 15 32 5 63 -17
56 -28 69 -43 54 -13 -13 -58 -17 -58 -4 0 4 5 13 12 20 9 9 7 16 -7 32 -10
11 -23 20 -29 20 -6 0 -3 -7 7 -15 18 -13 18 -15 -3 -43 -41 -55 9 -90 63 -44
22 20 29 12 31 -34 1 -32 -4 -41 -33 -61 -19 -13 -42 -23 -52 -23 -27 0 -76
47 -89 85 -14 41 -8 64 27 105 13 17 20 30 14 30 -5 0 -18 -12 -28 -26 -10
-14 -26 -34 -35 -45 -34 -36 -12 -112 45 -161 l22 -18 -26 9 c-15 5 -30 7 -33
4 -3 -4 -6 -1 -6 6 0 6 -6 11 -12 10 -29 -3 -48 2 -64 19 -10 9 -20 16 -23 15
-14 -6 -41 9 -35 19 4 7 2 8 -4 4 -7 -4 -42 11 -79 33 -38 22 -106 52 -153 66
-47 15 -125 46 -175 70 -49 24 -102 46 -116 49 -34 7 -87 45 -112 78 -28 38
-26 80 7 122 37 49 89 73 220 103 61 13 114 27 118 29 5 3 8 17 8 31 0 18 13
38 42 65 58 53 124 70 185 47z m42 -1092 c6 -8 9 -16 6 -19 -3 -3 13 -25 36
-49 39 -43 40 -43 10 -5 -38 49 -33 58 13 20 18 -16 52 -42 75 -57 23 -16 39
-32 36 -37 -6 -10 19 -20 50 -20 31 0 41 -18 21 -38 -15 -15 -16 -15 -17 3 0
18 -1 17 -10 -3 -18 -45 27 -142 66 -142 11 0 40 -11 64 -25 23 -14 47 -25 52
-25 14 0 45 31 52 53 7 19 42 23 53 5 4 -6 1 -16 -7 -22 -8 -6 -13 -20 -11
-32 5 -33 -15 -73 -41 -79 -17 -5 -36 2 -62 19 -26 18 -52 26 -84 27 -54 1
-117 22 -113 38 1 6 -1 10 -5 10 -22 -4 -34 3 -46 27 l-14 27 -16 -24 c-23
-32 -21 -61 8 -118 16 -33 32 -51 49 -55 14 -3 30 -15 36 -27 24 -43 -42 -95
-89 -69 -16 8 -21 20 -21 53 0 36 -6 49 -35 77 -24 23 -38 47 -42 72 -3 21
-11 38 -18 38 -7 0 -18 6 -24 14 -9 10 -8 15 4 20 8 3 15 0 16 -7 0 -7 4 -3 8
8 5 11 7 22 5 24 -6 7 -56 -31 -128 -98 -45 -41 -99 -79 -145 -101 -50 -24
-73 -41 -77 -56 -6 -24 -58 -54 -93 -54 -11 0 -25 9 -31 20 -16 30 4 58 45 66
19 3 38 10 41 15 3 5 32 23 65 40 58 29 226 179 184 164 -40 -15 -190 -45
-202 -41 -6 3 -14 2 -18 -2 -10 -10 -49 -8 -57 3 -5 6 -8 5 -8 -2 0 -7 -8 -13
-18 -13 -10 0 -28 -13 -40 -30 -17 -23 -30 -30 -57 -30 -66 0 -87 62 -30 89
23 11 38 12 72 3 39 -11 53 -9 155 25 64 20 119 45 128 56 9 10 35 22 58 27
33 6 44 4 57 -10 9 -10 25 -20 36 -23 14 -4 12 2 -12 24 -44 41 -38 78 17 96
30 10 41 19 39 31 -9 45 -13 132 -6 132 5 0 14 -6 20 -13z m707 -66 c57 -42
79 -65 123 -129 21 -31 56 -73 76 -92 66 -63 79 -113 50 -187 -21 -56 -65
-244 -59 -254 3 -5 0 -17 -6 -26 -9 -15 -10 -14 -5 7 4 15 -10 0 -33 -35 -47
-73 -99 -120 -166 -151 -57 -27 -88 -29 -220 -13 -75 9 -102 8 -151 -5 -33 -8
-98 -18 -145 -22 -49 -4 -102 -14 -124 -25 -22 -11 -47 -19 -56 -19 -26 0 -60
30 -60 52 l0 22 20 -22 c20 -21 66 -39 76 -29 3 2 -12 15 -33 28 -52 31 -50
29 -29 45 29 20 73 18 86 -5 9 -18 13 -18 37 -6 16 8 62 21 102 31 41 9 93 25
115 35 l41 18 -47 0 c-46 1 -65 4 -223 37 -44 10 -93 16 -109 15 -36 -2 -56
14 -56 46 0 24 0 24 26 -6 25 -30 44 -40 44 -22 0 4 -12 20 -26 35 -33 32 -16
34 45 4 40 -20 67 -24 209 -28 89 -3 162 -2 162 1 0 3 -12 12 -26 20 -14 7
-37 26 -50 42 -30 36 -18 67 26 67 23 0 31 -5 36 -25 3 -13 14 -27 24 -30 9
-3 25 -14 35 -25 24 -26 67 -26 83 1 7 11 29 66 49 122 44 128 57 153 100 199
l35 36 -77 73 c-42 40 -87 94 -100 120 l-24 46 37 35 c43 42 54 46 108 47 30
1 51 -7 80 -28z m-355 -228 c13 -7 38 -17 54 -23 26 -10 28 -13 13 -21 -13 -7
-29 -4 -57 11 -22 11 -47 20 -54 20 -19 0 -47 43 -47 71 0 20 3 19 33 -12 18
-19 44 -40 58 -46z m703 -196 c53 -1 43 -11 -25 -26 -51 -12 -61 -6 -47 29 7
18 11 21 17 11 5 -8 28 -13 55 -14z m251 -450 c-33 -13 -62 -18 -64 -13 -7 18
33 36 78 35 l46 0 -60 -22z m45 -156 c0 -14 -59 -60 -85 -67 -13 -3 -29 -3
-35 1 -13 8 11 27 69 56 41 21 51 23 51 10z m-20 -139 c0 -26 -28 -43 -65 -40
-54 4 -56 24 -3 36 57 13 68 14 68 4z"/>
<path d="M699 2404 c-64 -19 -109 -63 -109 -105 0 -36 12 -33 14 3 1 33 90 78
165 85 67 6 101 -8 157 -65 87 -88 85 -198 -4 -271 -107 -89 -282 -41 -307 84
l-6 30 14 -30 c20 -43 81 -93 123 -101 112 -21 227 91 195 189 -16 46 -79 103
-131 117 -66 18 -145 -7 -176 -56 -18 -27 -36 -107 -23 -98 5 3 9 1 9 -5 0 -5
-5 -11 -11 -13 -8 -3 -9 -18 -4 -48 15 -91 130 -158 252 -148 51 4 58 8 96 53
23 27 52 75 66 108 28 72 22 105 -37 182 -71 94 -168 125 -283 89z m51 -100
c0 -3 -9 -17 -20 -31 -29 -37 -26 -79 9 -114 50 -49 121 -33 144 34 10 27 27
20 27 -12 0 -36 -38 -84 -80 -101 -47 -19 -115 -7 -158 27 -32 26 -37 37 -40
78 -3 41 1 52 25 77 34 37 93 63 93 42z m74 -50 c9 -8 21 -25 27 -37 10 -17 8
-24 -11 -39 -12 -10 -30 -18 -39 -18 -28 0 -61 30 -61 55 0 47 52 71 84 39z"/>
<path d="M1544 185 c11 -8 38 -15 60 -14 l41 1 -30 13 c-16 8 -43 14 -60 14
-29 0 -29 0 -11 -14z"/>
<path d="M1326 810 c-10 -30 -23 -59 -30 -63 -7 -6 -6 -7 4 -5 20 5 52 72 48
100 -2 17 -8 8 -22 -32z"/>
</g>
</svg>
